<?xml version="1.0" encoding="UTF-8" standalone="no"?>
<svg
   xmlns:dc="http://purl.org/dc/elements/1.1/"
   xmlns:cc="http://creativecommons.org/ns#"
   xmlns:rdf="http://www.w3.org/1999/02/22-rdf-syntax-ns#"
   xmlns:svg="http://www.w3.org/2000/svg"
   xmlns="http://www.w3.org/2000/svg"
   xmlns:xlink="http://www.w3.org/1999/xlink"
   xmlns:sodipodi="http://sodipodi.sourceforge.net/DTD/sodipodi-0.dtd"
   xmlns:inkscape="http://www.inkscape.org/namespaces/inkscape"
   inkscape:version="1.0 (4035a4fb49, 2020-05-01)"
   sodipodi:docname="rating_expected.svg"
   id="svg1294"
   width="460.8pt"
   viewBox="0 0 460.8 345.6"
   version="1.1"
   height="345.6pt">
  <metadata
     id="metadata1298">
    <rdf:RDF>
      <cc:Work
         rdf:about="">
        <dc:format>image/svg+xml</dc:format>
        <dc:type
           rdf:resource="http://purl.org/dc/dcmitype/StillImage" />
      </cc:Work>
    </rdf:RDF>
  </metadata>
  <sodipodi:namedview
     inkscape:current-layer="g1283"
     inkscape:window-maximized="1"
     inkscape:window-y="18"
     inkscape:window-x="0"
     inkscape:cy="187.03943"
     inkscape:cx="578.27403"
     inkscape:zoom="7.4270763"
     showgrid="false"
     id="namedview1296"
     inkscape:window-height="1401"
     inkscape:window-width="2556"
     inkscape:pageshadow="2"
     inkscape:pageopacity="0"
     guidetolerance="10"
     gridtolerance="10"
     objecttolerance="10"
     borderopacity="1"
     bordercolor="#666666"
     pagecolor="#ffffff" />
  <defs
     id="defs683">
    <style
       id="style681"
       type="text/css">
*{stroke-linecap:butt;stroke-linejoin:round;}
  </style>
  </defs>
  <g
     id="figure_1">
    <g
       id="patch_1">
      <path
         id="path685"
         style="fill:none;"
         d="M 0 345.6  L 460.8 345.6  L 460.8 0  L 0 0  z " />
    </g>
    <g
       id="axes_1">
      <g
         id="patch_2">
        <path
           id="path688"
           style="fill:none;"
           d="M 54.2 297.16  L 447.48 297.16  L 447.48 27.6  L 54.2 27.6  z " />
      </g>
      <g
         id="matplotlib.axis_1">
        <g
           id="xtick_1">
          <g
             id="line2d_1">
            <path
               id="path691"
               style="fill:none;stroke:#b0b0b0;stroke-dasharray:0.8,1.32;stroke-dashoffset:0;stroke-width:0.8;"
               d="M 72.076364 297.16  L 72.076364 27.6  "
               clip-path="url(#pd6b9cab97d)" />
          </g>
          <g
             id="line2d_2">
            <defs
               id="defs695">
              <path
                 style="stroke:#000000;stroke-width:0.8;"
                 id="mf570778b40"
                 d="M 0 0  L 0 3.5  " />
            </defs>
            <g
               id="g699">
              <use
                 id="use697"
                 y="297.16"
                 xlink:href="#mf570778b40"
                 x="72.076364"
                 style="stroke:#000000;stroke-width:0.8;" />
            </g>
          </g>
          <g
             id="text_1">
            <!-- −1000 -->
            <defs
               id="defs705">
              <path
                 id="DejaVuSans-2212"
                 d="M 10.59375 35.5  L 73.1875 35.5  L 73.1875 27.203125  L 10.59375 27.203125  z " />
              <path
                 id="DejaVuSans-31"
                 d="M 12.40625 8.296875  L 28.515625 8.296875  L 28.515625 63.921875  L 10.984375 60.40625  L 10.984375 69.390625  L 28.421875 72.90625  L 38.28125 72.90625  L 38.28125 8.296875  L 54.390625 8.296875  L 54.390625 0  L 12.40625 0  z " />
              <path
                 id="DejaVuSans-30"
                 d="M 31.78125 66.40625  Q 24.171875 66.40625 20.328125 58.90625  Q 16.5 51.421875 16.5 36.375  Q 16.5 21.390625 20.328125 13.890625  Q 24.171875 6.390625 31.78125 6.390625  Q 39.453125 6.390625 43.28125 13.890625  Q 47.125 21.390625 47.125 36.375  Q 47.125 51.421875 43.28125 58.90625  Q 39.453125 66.40625 31.78125 66.40625  z M 31.78125 74.21875  Q 44.046875 74.21875 50.515625 64.515625  Q 56.984375 54.828125 56.984375 36.375  Q 56.984375 17.96875 50.515625 8.265625  Q 44.046875 -1.421875 31.78125 -1.421875  Q 19.53125 -1.421875 13.0625 8.265625  Q 6.59375 17.96875 6.59375 36.375  Q 6.59375 54.828125 13.0625 64.515625  Q 19.53125 74.21875 31.78125 74.21875  z " />
            </defs>
            <g
               id="g717"
               transform="translate(55.16152 311.758438)scale(0.1 -0.1)">
              <use
                 id="use707"
                 xlink:href="#DejaVuSans-2212" />
              <use
                 id="use709"
                 xlink:href="#DejaVuSans-31"
                 x="83.789062" />
              <use
                 id="use711"
                 xlink:href="#DejaVuSans-30"
                 x="147.412109" />
              <use
                 id="use713"
                 xlink:href="#DejaVuSans-30"
                 x="211.035156" />
              <use
                 id="use715"
                 xlink:href="#DejaVuSans-30"
                 x="274.658203" />
            </g>
          </g>
        </g>
        <g
           id="xtick_2">
          <g
             id="line2d_3">
            <path
               id="path721"
               style="fill:none;stroke:#b0b0b0;stroke-dasharray:0.8,1.32;stroke-dashoffset:0;stroke-width:0.8;"
               d="M 116.767273 297.16  L 116.767273 27.6  "
               clip-path="url(#pd6b9cab97d)" />
          </g>
          <g
             id="line2d_4">
            <g
               id="g726">
              <use
                 id="use724"
                 y="297.16"
                 xlink:href="#mf570778b40"
                 x="116.767273"
                 style="stroke:#000000;stroke-width:0.8;" />
            </g>
          </g>
          <g
             id="text_2">
            <!-- −750 -->
            <defs
               id="defs731">
              <path
                 id="DejaVuSans-37"
                 d="M 8.203125 72.90625  L 55.078125 72.90625  L 55.078125 68.703125  L 28.609375 0  L 18.3125 0  L 43.21875 64.59375  L 8.203125 64.59375  z " />
              <path
                 id="DejaVuSans-35"
                 d="M 10.796875 72.90625  L 49.515625 72.90625  L 49.515625 64.59375  L 19.828125 64.59375  L 19.828125 46.734375  Q 21.96875 47.46875 24.109375 47.828125  Q 26.265625 48.1875 28.421875 48.1875  Q 40.625 48.1875 47.75 41.5  Q 54.890625 34.8125 54.890625 23.390625  Q 54.890625 11.625 47.5625 5.09375  Q 40.234375 -1.421875 26.90625 -1.421875  Q 22.3125 -1.421875 17.546875 -0.640625  Q 12.796875 0.140625 7.71875 1.703125  L 7.71875 11.625  Q 12.109375 9.234375 16.796875 8.0625  Q 21.484375 6.890625 26.703125 6.890625  Q 35.15625 6.890625 40.078125 11.328125  Q 45.015625 15.765625 45.015625 23.390625  Q 45.015625 31 40.078125 35.4375  Q 35.15625 39.890625 26.703125 39.890625  Q 22.75 39.890625 18.8125 39.015625  Q 14.890625 38.140625 10.796875 36.28125  z " />
            </defs>
            <g
               id="g741"
               transform="translate(103.033679 311.758438)scale(0.1 -0.1)">
              <use
                 id="use733"
                 xlink:href="#DejaVuSans-2212" />
              <use
                 id="use735"
                 xlink:href="#DejaVuSans-37"
                 x="83.789062" />
              <use
                 id="use737"
                 xlink:href="#DejaVuSans-35"
                 x="147.412109" />
              <use
                 id="use739"
                 xlink:href="#DejaVuSans-30"
                 x="211.035156" />
            </g>
          </g>
        </g>
        <g
           id="xtick_3">
          <g
             id="line2d_5">
            <path
               id="path745"
               style="fill:none;stroke:#b0b0b0;stroke-dasharray:0.8,1.32;stroke-dashoffset:0;stroke-width:0.8;"
               d="M 161.458182 297.16  L 161.458182 27.6  "
               clip-path="url(#pd6b9cab97d)" />
          </g>
          <g
             id="line2d_6">
            <g
               id="g750">
              <use
                 id="use748"
                 y="297.16"
                 xlink:href="#mf570778b40"
                 x="161.458182"
                 style="stroke:#000000;stroke-width:0.8;" />
            </g>
          </g>
          <g
             id="text_3">
            <!-- −500 -->
            <g
               id="g761"
               transform="translate(147.724588 311.758438)scale(0.1 -0.1)">
              <use
                 id="use753"
                 xlink:href="#DejaVuSans-2212" />
              <use
                 id="use755"
                 xlink:href="#DejaVuSans-35"
                 x="83.789062" />
              <use
                 id="use757"
                 xlink:href="#DejaVuSans-30"
                 x="147.412109" />
              <use
                 id="use759"
                 xlink:href="#DejaVuSans-30"
                 x="211.035156" />
            </g>
          </g>
        </g>
        <g
           id="xtick_4">
          <g
             id="line2d_7">
            <path
               id="path765"
               style="fill:none;stroke:#b0b0b0;stroke-dasharray:0.8,1.32;stroke-dashoffset:0;stroke-width:0.8;"
               d="M 206.149091 297.16  L 206.149091 27.6  "
               clip-path="url(#pd6b9cab97d)" />
          </g>
          <g
             id="line2d_8">
            <g
               id="g770">
              <use
                 id="use768"
                 y="297.16"
                 xlink:href="#mf570778b40"
                 x="206.149091"
                 style="stroke:#000000;stroke-width:0.8;" />
            </g>
          </g>
          <g
             id="text_4">
            <!-- −250 -->
            <defs
               id="defs774">
              <path
                 id="DejaVuSans-32"
                 d="M 19.1875 8.296875  L 53.609375 8.296875  L 53.609375 0  L 7.328125 0  L 7.328125 8.296875  Q 12.9375 14.109375 22.625 23.890625  Q 32.328125 33.6875 34.8125 36.53125  Q 39.546875 41.84375 41.421875 45.53125  Q 43.3125 49.21875 43.3125 52.78125  Q 43.3125 58.59375 39.234375 62.25  Q 35.15625 65.921875 28.609375 65.921875  Q 23.96875 65.921875 18.8125 64.3125  Q 13.671875 62.703125 7.8125 59.421875  L 7.8125 69.390625  Q 13.765625 71.78125 18.9375 73  Q 24.125 74.21875 28.421875 74.21875  Q 39.75 74.21875 46.484375 68.546875  Q 53.21875 62.890625 53.21875 53.421875  Q 53.21875 48.921875 51.53125 44.890625  Q 49.859375 40.875 45.40625 35.40625  Q 44.1875 33.984375 37.640625 27.21875  Q 31.109375 20.453125 19.1875 8.296875  z " />
            </defs>
            <g
               id="g784"
               transform="translate(192.415497 311.758438)scale(0.1 -0.1)">
              <use
                 id="use776"
                 xlink:href="#DejaVuSans-2212" />
              <use
                 id="use778"
                 xlink:href="#DejaVuSans-32"
                 x="83.789062" />
              <use
                 id="use780"
                 xlink:href="#DejaVuSans-35"
                 x="147.412109" />
              <use
                 id="use782"
                 xlink:href="#DejaVuSans-30"
                 x="211.035156" />
            </g>
          </g>
        </g>
        <g
           id="xtick_5">
          <g
             id="line2d_9">
            <path
               id="path788"
               style="fill:none;stroke:#b0b0b0;stroke-dasharray:0.8,1.32;stroke-dashoffset:0;stroke-width:0.8;"
               d="M 250.84 297.16  L 250.84 27.6  "
               clip-path="url(#pd6b9cab97d)" />
          </g>
          <g
             id="line2d_10">
            <g
               id="g793">
              <use
                 id="use791"
                 y="297.16"
                 xlink:href="#mf570778b40"
                 x="250.84"
                 style="stroke:#000000;stroke-width:0.8;" />
            </g>
          </g>
          <g
             id="text_5">
            <!-- 0 -->
            <g
               id="g798"
               transform="translate(247.65875 311.758438)scale(0.1 -0.1)">
              <use
                 id="use796"
                 xlink:href="#DejaVuSans-30" />
            </g>
          </g>
        </g>
        <g
           id="xtick_6">
          <g
             id="line2d_11">
            <path
               id="path802"
               style="fill:none;stroke:#b0b0b0;stroke-dasharray:0.8,1.32;stroke-dashoffset:0;stroke-width:0.8;"
               d="M 295.530909 297.16  L 295.530909 27.6  "
               clip-path="url(#pd6b9cab97d)" />
          </g>
          <g
             id="line2d_12">
            <g
               id="g807">
              <use
                 id="use805"
                 y="297.16"
                 xlink:href="#mf570778b40"
                 x="295.530909"
                 style="stroke:#000000;stroke-width:0.8;" />
            </g>
          </g>
          <g
             id="text_6">
            <!-- 250 -->
            <g
               id="g816"
               transform="translate(285.987159 311.758438)scale(0.1 -0.1)">
              <use
                 id="use810"
                 xlink:href="#DejaVuSans-32" />
              <use
                 id="use812"
                 xlink:href="#DejaVuSans-35"
                 x="63.623047" />
              <use
                 id="use814"
                 xlink:href="#DejaVuSans-30"
                 x="127.246094" />
            </g>
          </g>
        </g>
        <g
           id="xtick_7">
          <g
             id="line2d_13">
            <path
               id="path820"
               style="fill:none;stroke:#b0b0b0;stroke-dasharray:0.8,1.32;stroke-dashoffset:0;stroke-width:0.8;"
               d="M 340.221818 297.16  L 340.221818 27.6  "
               clip-path="url(#pd6b9cab97d)" />
          </g>
          <g
             id="line2d_14">
            <g
               id="g825">
              <use
                 id="use823"
                 y="297.16"
                 xlink:href="#mf570778b40"
                 x="340.221818"
                 style="stroke:#000000;stroke-width:0.8;" />
            </g>
          </g>
          <g
             id="text_7">
            <!-- 500 -->
            <g
               id="g834"
               transform="translate(330.678068 311.758438)scale(0.1 -0.1)">
              <use
                 id="use828"
                 xlink:href="#DejaVuSans-35" />
              <use
                 id="use830"
                 xlink:href="#DejaVuSans-30"
                 x="63.623047" />
              <use
                 id="use832"
                 xlink:href="#DejaVuSans-30"
                 x="127.246094" />
            </g>
          </g>
        </g>
        <g
           id="xtick_8">
          <g
             id="line2d_15">
            <path
               id="path838"
               style="fill:none;stroke:#b0b0b0;stroke-dasharray:0.8,1.32;stroke-dashoffset:0;stroke-width:0.8;"
               d="M 384.912727 297.16  L 384.912727 27.6  "
               clip-path="url(#pd6b9cab97d)" />
          </g>
          <g
             id="line2d_16">
            <g
               id="g843">
              <use
                 id="use841"
                 y="297.16"
                 xlink:href="#mf570778b40"
                 x="384.912727"
                 style="stroke:#000000;stroke-width:0.8;" />
            </g>
          </g>
          <g
             id="text_8">
            <!-- 750 -->
            <g
               id="g852"
               transform="translate(375.368977 311.758438)scale(0.1 -0.1)">
              <use
                 id="use846"
                 xlink:href="#DejaVuSans-37" />
              <use
                 id="use848"
                 xlink:href="#DejaVuSans-35"
                 x="63.623047" />
              <use
                 id="use850"
                 xlink:href="#DejaVuSans-30"
                 x="127.246094" />
            </g>
          </g>
        </g>
        <g
           id="xtick_9">
          <g
             id="line2d_17">
            <path
               id="path856"
               style="fill:none;stroke:#b0b0b0;stroke-dasharray:0.8,1.32;stroke-dashoffset:0;stroke-width:0.8;"
               d="M 429.603636 297.16  L 429.603636 27.6  "
               clip-path="url(#pd6b9cab97d)" />
          </g>
          <g
             id="line2d_18">
            <g
               id="g861">
              <use
                 id="use859"
                 y="297.16"
                 xlink:href="#mf570778b40"
                 x="429.603636"
                 style="stroke:#000000;stroke-width:0.8;" />
            </g>
          </g>
          <g
             id="text_9">
            <!-- 1000 -->
            <g
               id="g872"
               transform="translate(416.878636 311.758438)scale(0.1 -0.1)">
              <use
                 id="use864"
                 xlink:href="#DejaVuSans-31" />
              <use
                 id="use866"
                 xlink:href="#DejaVuSans-30"
                 x="63.623047" />
              <use
                 id="use868"
                 xlink:href="#DejaVuSans-30"
                 x="127.246094" />
              <use
                 id="use870"
                 xlink:href="#DejaVuSans-30"
                 x="190.869141" />
            </g>
          </g>
        </g>
        <g
           id="text_10">
          <!-- Rating difference ($R_B-R_A$) -->
          <defs
             id="defs893">
            <path
               id="DejaVuSans-52"
               d="M 44.390625 34.1875  Q 47.5625 33.109375 50.5625 29.59375  Q 53.5625 26.078125 56.59375 19.921875  L 66.609375 0  L 56 0  L 46.6875 18.703125  Q 43.0625 26.03125 39.671875 28.421875  Q 36.28125 30.8125 30.421875 30.8125  L 19.671875 30.8125  L 19.671875 0  L 9.8125 0  L 9.8125 72.90625  L 32.078125 72.90625  Q 44.578125 72.90625 50.734375 67.671875  Q 56.890625 62.453125 56.890625 51.90625  Q 56.890625 45.015625 53.6875 40.46875  Q 50.484375 35.9375 44.390625 34.1875  z M 19.671875 64.796875  L 19.671875 38.921875  L 32.078125 38.921875  Q 39.203125 38.921875 42.84375 42.21875  Q 46.484375 45.515625 46.484375 51.90625  Q 46.484375 58.296875 42.84375 61.546875  Q 39.203125 64.796875 32.078125 64.796875  z " />
            <path
               id="DejaVuSans-61"
               d="M 34.28125 27.484375  Q 23.390625 27.484375 19.1875 25  Q 14.984375 22.515625 14.984375 16.5  Q 14.984375 11.71875 18.140625 8.90625  Q 21.296875 6.109375 26.703125 6.109375  Q 34.1875 6.109375 38.703125 11.40625  Q 43.21875 16.703125 43.21875 25.484375  L 43.21875 27.484375  z M 52.203125 31.203125  L 52.203125 0  L 43.21875 0  L 43.21875 8.296875  Q 40.140625 3.328125 35.546875 0.953125  Q 30.953125 -1.421875 24.3125 -1.421875  Q 15.921875 -1.421875 10.953125 3.296875  Q 6 8.015625 6 15.921875  Q 6 25.140625 12.171875 29.828125  Q 18.359375 34.515625 30.609375 34.515625  L 43.21875 34.515625  L 43.21875 35.40625  Q 43.21875 41.609375 39.140625 45  Q 35.0625 48.390625 27.6875 48.390625  Q 23 48.390625 18.546875 47.265625  Q 14.109375 46.140625 10.015625 43.890625  L 10.015625 52.203125  Q 14.9375 54.109375 19.578125 55.046875  Q 24.21875 56 28.609375 56  Q 40.484375 56 46.34375 49.84375  Q 52.203125 43.703125 52.203125 31.203125  z " />
            <path
               id="DejaVuSans-74"
               d="M 18.3125 70.21875  L 18.3125 54.6875  L 36.8125 54.6875  L 36.8125 47.703125  L 18.3125 47.703125  L 18.3125 18.015625  Q 18.3125 11.328125 20.140625 9.421875  Q 21.96875 7.515625 27.59375 7.515625  L 36.8125 7.515625  L 36.8125 0  L 27.59375 0  Q 17.1875 0 13.234375 3.875  Q 9.28125 7.765625 9.28125 18.015625  L 9.28125 47.703125  L 2.6875 47.703125  L 2.6875 54.6875  L 9.28125 54.6875  L 9.28125 70.21875  z " />
            <path
               id="DejaVuSans-69"
               d="M 9.421875 54.6875  L 18.40625 54.6875  L 18.40625 0  L 9.421875 0  z M 9.421875 75.984375  L 18.40625 75.984375  L 18.40625 64.59375  L 9.421875 64.59375  z " />
            <path
               id="DejaVuSans-6e"
               d="M 54.890625 33.015625  L 54.890625 0  L 45.90625 0  L 45.90625 32.71875  Q 45.90625 40.484375 42.875 44.328125  Q 39.84375 48.1875 33.796875 48.1875  Q 26.515625 48.1875 22.3125 43.546875  Q 18.109375 38.921875 18.109375 30.90625  L 18.109375 0  L 9.078125 0  L 9.078125 54.6875  L 18.109375 54.6875  L 18.109375 46.1875  Q 21.34375 51.125 25.703125 53.5625  Q 30.078125 56 35.796875 56  Q 45.21875 56 50.046875 50.171875  Q 54.890625 44.34375 54.890625 33.015625  z " />
            <path
               id="DejaVuSans-67"
               d="M 45.40625 27.984375  Q 45.40625 37.75 41.375 43.109375  Q 37.359375 48.484375 30.078125 48.484375  Q 22.859375 48.484375 18.828125 43.109375  Q 14.796875 37.75 14.796875 27.984375  Q 14.796875 18.265625 18.828125 12.890625  Q 22.859375 7.515625 30.078125 7.515625  Q 37.359375 7.515625 41.375 12.890625  Q 45.40625 18.265625 45.40625 27.984375  z M 54.390625 6.78125  Q 54.390625 -7.171875 48.1875 -13.984375  Q 42 -20.796875 29.203125 -20.796875  Q 24.46875 -20.796875 20.265625 -20.09375  Q 16.0625 -19.390625 12.109375 -17.921875  L 12.109375 -9.1875  Q 16.0625 -11.328125 19.921875 -12.34375  Q 23.78125 -13.375 27.78125 -13.375  Q 36.625 -13.375 41.015625 -8.765625  Q 45.40625 -4.15625 45.40625 5.171875  L 45.40625 9.625  Q 42.625 4.78125 38.28125 2.390625  Q 33.9375 0 27.875 0  Q 17.828125 0 11.671875 7.65625  Q 5.515625 15.328125 5.515625 27.984375  Q 5.515625 40.671875 11.671875 48.328125  Q 17.828125 56 27.875 56  Q 33.9375 56 38.28125 53.609375  Q 42.625 51.21875 45.40625 46.390625  L 45.40625 54.6875  L 54.390625 54.6875  z " />
            <path
               id="DejaVuSans-20" />
            <path
               id="DejaVuSans-64"
               d="M 45.40625 46.390625  L 45.40625 75.984375  L 54.390625 75.984375  L 54.390625 0  L 45.40625 0  L 45.40625 8.203125  Q 42.578125 3.328125 38.25 0.953125  Q 33.9375 -1.421875 27.875 -1.421875  Q 17.96875 -1.421875 11.734375 6.484375  Q 5.515625 14.40625 5.515625 27.296875  Q 5.515625 40.1875 11.734375 48.09375  Q 17.96875 56 27.875 56  Q 33.9375 56 38.25 53.625  Q 42.578125 51.265625 45.40625 46.390625  z M 14.796875 27.296875  Q 14.796875 17.390625 18.875 11.75  Q 22.953125 6.109375 30.078125 6.109375  Q 37.203125 6.109375 41.296875 11.75  Q 45.40625 17.390625 45.40625 27.296875  Q 45.40625 37.203125 41.296875 42.84375  Q 37.203125 48.484375 30.078125 48.484375  Q 22.953125 48.484375 18.875 42.84375  Q 14.796875 37.203125 14.796875 27.296875  z " />
            <path
               id="DejaVuSans-66"
               d="M 37.109375 75.984375  L 37.109375 68.5  L 28.515625 68.5  Q 23.6875 68.5 21.796875 66.546875  Q 19.921875 64.59375 19.921875 59.515625  L 19.921875 54.6875  L 34.71875 54.6875  L 34.71875 47.703125  L 19.921875 47.703125  L 19.921875 0  L 10.890625 0  L 10.890625 47.703125  L 2.296875 47.703125  L 2.296875 54.6875  L 10.890625 54.6875  L 10.890625 58.5  Q 10.890625 67.625 15.140625 71.796875  Q 19.390625 75.984375 28.609375 75.984375  z " />
            <path
               id="DejaVuSans-65"
               d="M 56.203125 29.59375  L 56.203125 25.203125  L 14.890625 25.203125  Q 15.484375 15.921875 20.484375 11.0625  Q 25.484375 6.203125 34.421875 6.203125  Q 39.59375 6.203125 44.453125 7.46875  Q 49.3125 8.734375 54.109375 11.28125  L 54.109375 2.78125  Q 49.265625 0.734375 44.1875 -0.34375  Q 39.109375 -1.421875 33.890625 -1.421875  Q 20.796875 -1.421875 13.15625 6.1875  Q 5.515625 13.8125 5.515625 26.8125  Q 5.515625 40.234375 12.765625 48.109375  Q 20.015625 56 32.328125 56  Q 43.359375 56 49.78125 48.890625  Q 56.203125 41.796875 56.203125 29.59375  z M 47.21875 32.234375  Q 47.125 39.59375 43.09375 43.984375  Q 39.0625 48.390625 32.421875 48.390625  Q 24.90625 48.390625 20.390625 44.140625  Q 15.875 39.890625 15.1875 32.171875  z " />
            <path
               id="DejaVuSans-72"
               d="M 41.109375 46.296875  Q 39.59375 47.171875 37.8125 47.578125  Q 36.03125 48 33.890625 48  Q 26.265625 48 22.1875 43.046875  Q 18.109375 38.09375 18.109375 28.8125  L 18.109375 0  L 9.078125 0  L 9.078125 54.6875  L 18.109375 54.6875  L 18.109375 46.1875  Q 20.953125 51.171875 25.484375 53.578125  Q 30.03125 56 36.53125 56  Q 37.453125 56 38.578125 55.875  Q 39.703125 55.765625 41.0625 55.515625  z " />
            <path
               id="DejaVuSans-63"
               d="M 48.78125 52.59375  L 48.78125 44.1875  Q 44.96875 46.296875 41.140625 47.34375  Q 37.3125 48.390625 33.40625 48.390625  Q 24.65625 48.390625 19.8125 42.84375  Q 14.984375 37.3125 14.984375 27.296875  Q 14.984375 17.28125 19.8125 11.734375  Q 24.65625 6.203125 33.40625 6.203125  Q 37.3125 6.203125 41.140625 7.25  Q 44.96875 8.296875 48.78125 10.40625  L 48.78125 2.09375  Q 45.015625 0.34375 40.984375 -0.53125  Q 36.96875 -1.421875 32.421875 -1.421875  Q 20.0625 -1.421875 12.78125 6.34375  Q 5.515625 14.109375 5.515625 27.296875  Q 5.515625 40.671875 12.859375 48.328125  Q 20.21875 56 33.015625 56  Q 37.15625 56 41.109375 55.140625  Q 45.0625 54.296875 48.78125 52.59375  z " />
            <path
               id="DejaVuSans-28"
               d="M 31 75.875  Q 24.46875 64.65625 21.28125 53.65625  Q 18.109375 42.671875 18.109375 31.390625  Q 18.109375 20.125 21.3125 9.0625  Q 24.515625 -2 31 -13.1875  L 23.1875 -13.1875  Q 15.875 -1.703125 12.234375 9.375  Q 8.59375 20.453125 8.59375 31.390625  Q 8.59375 42.28125 12.203125 53.3125  Q 15.828125 64.359375 23.1875 75.875  z " />
            <path
               id="DejaVuSans-Oblique-52"
               d="M 25.203125 64.796875  L 20.21875 38.921875  L 32.90625 38.921875  Q 40.375 38.921875 44.984375 43.046875  Q 49.609375 47.171875 49.609375 53.8125  Q 49.609375 59.125 46.5 61.953125  Q 43.40625 64.796875 37.59375 64.796875  z M 43.3125 35.015625  Q 46.4375 34.28125 48.515625 31.390625  Q 50.59375 28.515625 53.328125 19.921875  L 59.515625 0  L 49.125 0  L 43.40625 18.703125  Q 41.21875 25.921875 38.328125 28.359375  Q 35.453125 30.8125 29.5 30.8125  L 18.609375 30.8125  L 12.59375 0  L 2.6875 0  L 16.890625 72.90625  L 39.109375 72.90625  Q 49.21875 72.90625 54.609375 68.328125  Q 60.015625 63.765625 60.015625 55.171875  Q 60.015625 47.5625 55.421875 41.984375  Q 50.828125 36.421875 43.3125 35.015625  z " />
            <path
               id="DejaVuSans-Oblique-42"
               d="M 16.890625 72.90625  L 42.09375 72.90625  Q 52.34375 72.90625 57.421875 69.09375  Q 62.5 65.28125 62.5 57.625  Q 62.5 50.59375 58.125 45.484375  Q 53.765625 40.375 46.6875 39.3125  Q 52.734375 37.9375 55.765625 34.078125  Q 58.796875 30.21875 58.796875 23.78125  Q 58.796875 12.796875 50.65625 6.390625  Q 42.53125 0 28.421875 0  L 2.6875 0  z M 19.28125 34.8125  L 14.109375 8.109375  L 29.984375 8.109375  Q 38.921875 8.109375 43.75 12.203125  Q 48.578125 16.3125 48.578125 23.78125  Q 48.578125 29.546875 45.375 32.171875  Q 42.1875 34.8125 35.109375 34.8125  z M 25.09375 64.796875  L 20.796875 42.828125  L 35.5 42.828125  Q 43.359375 42.828125 47.78125 46.234375  Q 52.203125 49.65625 52.203125 55.71875  Q 52.203125 60.453125 49.21875 62.625  Q 46.234375 64.796875 39.703125 64.796875  z " />
            <path
               id="DejaVuSans-Oblique-41"
               d="M 36.8125 72.90625  L 48 72.90625  L 61.53125 0  L 51.21875 0  L 48.1875 18.703125  L 15.375 18.703125  L 5.078125 0  L -5.328125 0  z M 40.375 63.1875  L 19.921875 26.90625  L 46.6875 26.90625  z " />
            <path
               id="DejaVuSans-29"
               d="M 8.015625 75.875  L 15.828125 75.875  Q 23.140625 64.359375 26.78125 53.3125  Q 30.421875 42.28125 30.421875 31.390625  Q 30.421875 20.453125 26.78125 9.375  Q 23.140625 -1.703125 15.828125 -13.1875  L 8.015625 -13.1875  Q 14.5 -2 17.703125 9.0625  Q 20.90625 20.125 20.90625 31.390625  Q 20.90625 42.671875 17.703125 53.65625  Q 14.5 64.65625 8.015625 75.875  z " />
          </defs>
          <g
             id="g945"
             transform="translate(154.648 328.782125)scale(0.144 -0.144)">
            <use
               id="use895"
               xlink:href="#DejaVuSans-52"
               transform="translate(0 0.015625)" />
            <use
               id="use897"
               xlink:href="#DejaVuSans-61"
               transform="translate(69.482422 0.015625)" />
            <use
               id="use899"
               xlink:href="#DejaVuSans-74"
               transform="translate(130.761719 0.015625)" />
            <use
               id="use901"
               xlink:href="#DejaVuSans-69"
               transform="translate(169.970703 0.015625)" />
            <use
               id="use903"
               xlink:href="#DejaVuSans-6e"
               transform="translate(197.753906 0.015625)" />
            <use
               id="use905"
               xlink:href="#DejaVuSans-67"
               transform="translate(261.132812 0.015625)" />
            <use
               id="use907"
               xlink:href="#DejaVuSans-20"
               transform="translate(324.609375 0.015625)" />
            <use
               id="use909"
               xlink:href="#DejaVuSans-64"
               transform="translate(356.396484 0.015625)" />
            <use
               id="use911"
               xlink:href="#DejaVuSans-69"
               transform="translate(419.873047 0.015625)" />
            <use
               id="use913"
               xlink:href="#DejaVuSans-66"
               transform="translate(447.65625 0.015625)" />
            <use
               id="use915"
               xlink:href="#DejaVuSans-66"
               transform="translate(482.861328 0.015625)" />
            <use
               id="use917"
               xlink:href="#DejaVuSans-65"
               transform="translate(518.066406 0.015625)" />
            <use
               id="use919"
               xlink:href="#DejaVuSans-72"
               transform="translate(579.589844 0.015625)" />
            <use
               id="use921"
               xlink:href="#DejaVuSans-65"
               transform="translate(620.703125 0.015625)" />
            <use
               id="use923"
               xlink:href="#DejaVuSans-6e"
               transform="translate(682.226562 0.015625)" />
            <use
               id="use925"
               xlink:href="#DejaVuSans-63"
               transform="translate(745.605469 0.015625)" />
            <use
               id="use927"
               xlink:href="#DejaVuSans-65"
               transform="translate(800.585938 0.015625)" />
            <use
               id="use929"
               xlink:href="#DejaVuSans-20"
               transform="translate(862.109375 0.015625)" />
            <use
               id="use931"
               xlink:href="#DejaVuSans-28"
               transform="translate(893.896484 0.015625)" />
            <use
               id="use933"
               xlink:href="#DejaVuSans-Oblique-52"
               transform="translate(932.910156 0.015625)" />
            <use
               id="use935"
               xlink:href="#DejaVuSans-Oblique-42"
               transform="translate(1002.392578 -16.390625)scale(0.7)" />
            <use
               id="use937"
               xlink:href="#DejaVuSans-2212"
               transform="translate(1072.631836 0.015625)" />
            <use
               id="use939"
               xlink:href="#DejaVuSans-Oblique-52"
               transform="translate(1175.90332 0.015625)" />
            <use
               id="use941"
               xlink:href="#DejaVuSans-Oblique-41"
               transform="translate(1245.385742 -16.390625)scale(0.7)" />
            <use
               id="use943"
               xlink:href="#DejaVuSans-29"
               transform="translate(1296.005859 0.015625)" />
          </g>
        </g>
      </g>
      <g
         id="matplotlib.axis_2">
        <g
           id="ytick_1">
          <g
             id="line2d_19">
            <path
               id="path949"
               style="fill:none;stroke:#b0b0b0;stroke-dasharray:0.8,1.32;stroke-dashoffset:0;stroke-width:0.8;"
               d="M 54.2 285.684662  L 447.48 285.684662  "
               clip-path="url(#pd6b9cab97d)" />
          </g>
          <g
             id="line2d_20">
            <defs
               id="defs953">
              <path
                 style="stroke:#000000;stroke-width:0.8;"
                 id="m1297805d93"
                 d="M 0 0  L -3.5 0  " />
            </defs>
            <g
               id="g957">
              <use
                 id="use955"
                 y="285.684662"
                 xlink:href="#m1297805d93"
                 x="54.2"
                 style="stroke:#000000;stroke-width:0.8;" />
            </g>
          </g>
          <g
             id="text_11">
            <!-- 0.0 -->
            <defs
               id="defs961">
              <path
                 id="DejaVuSans-2e"
                 d="M 10.6875 12.40625  L 21 12.40625  L 21 0  L 10.6875 0  z " />
            </defs>
            <g
               id="g969"
               transform="translate(31.296875 289.48388)scale(0.1 -0.1)">
              <use
                 id="use963"
                 xlink:href="#DejaVuSans-30" />
              <use
                 id="use965"
                 xlink:href="#DejaVuSans-2e"
                 x="63.623047" />
              <use
                 id="use967"
                 xlink:href="#DejaVuSans-30"
                 x="95.410156" />
            </g>
          </g>
        </g>
        <g
           id="ytick_2">
          <g
             id="line2d_21">
            <path
               id="path973"
               style="fill:none;stroke:#b0b0b0;stroke-dasharray:0.8,1.32;stroke-dashoffset:0;stroke-width:0.8;"
               d="M 54.2 236.362797  L 447.48 236.362797  "
               clip-path="url(#pd6b9cab97d)" />
          </g>
          <g
             id="line2d_22">
            <g
               id="g978">
              <use
                 id="use976"
                 y="236.362797"
                 xlink:href="#m1297805d93"
                 x="54.2"
                 style="stroke:#000000;stroke-width:0.8;" />
            </g>
          </g>
          <g
             id="text_12">
            <!-- 0.2 -->
            <g
               id="g987"
               transform="translate(31.296875 240.162016)scale(0.1 -0.1)">
              <use
                 id="use981"
                 xlink:href="#DejaVuSans-30" />
              <use
                 id="use983"
                 xlink:href="#DejaVuSans-2e"
                 x="63.623047" />
              <use
                 id="use985"
                 xlink:href="#DejaVuSans-32"
                 x="95.410156" />
            </g>
          </g>
        </g>
        <g
           id="ytick_3">
          <g
             id="line2d_23">
            <path
               id="path991"
               style="fill:none;stroke:#b0b0b0;stroke-dasharray:0.8,1.32;stroke-dashoffset:0;stroke-width:0.8;"
               d="M 54.2 187.040932  L 447.48 187.040932  "
               clip-path="url(#pd6b9cab97d)" />
          </g>
          <g
             id="line2d_24">
            <g
               id="g996">
              <use
                 id="use994"
                 y="187.040932"
                 xlink:href="#m1297805d93"
                 x="54.2"
                 style="stroke:#000000;stroke-width:0.8;" />
            </g>
          </g>
          <g
             id="text_13">
            <!-- 0.4 -->
            <defs
               id="defs1000">
              <path
                 id="DejaVuSans-34"
                 d="M 37.796875 64.3125  L 12.890625 25.390625  L 37.796875 25.390625  z M 35.203125 72.90625  L 47.609375 72.90625  L 47.609375 25.390625  L 58.015625 25.390625  L 58.015625 17.1875  L 47.609375 17.1875  L 47.609375 0  L 37.796875 0  L 37.796875 17.1875  L 4.890625 17.1875  L 4.890625 26.703125  z " />
            </defs>
            <g
               id="g1008"
               transform="translate(31.296875 190.840151)scale(0.1 -0.1)">
              <use
                 id="use1002"
                 xlink:href="#DejaVuSans-30" />
              <use
                 id="use1004"
                 xlink:href="#DejaVuSans-2e"
                 x="63.623047" />
              <use
                 id="use1006"
                 xlink:href="#DejaVuSans-34"
                 x="95.410156" />
            </g>
          </g>
        </g>
        <g
           id="ytick_4">
          <g
             id="line2d_25">
            <path
               id="path1012"
               style="fill:none;stroke:#b0b0b0;stroke-dasharray:0.8,1.32;stroke-dashoffset:0;stroke-width:0.8;"
               d="M 54.2 137.719068  L 447.48 137.719068  "
               clip-path="url(#pd6b9cab97d)" />
          </g>
          <g
             id="line2d_26">
            <g
               id="g1017">
              <use
                 id="use1015"
                 y="137.719068"
                 xlink:href="#m1297805d93"
                 x="54.2"
                 style="stroke:#000000;stroke-width:0.8;" />
            </g>
          </g>
          <g
             id="text_14">
            <!-- 0.6 -->
            <defs
               id="defs1021">
              <path
                 id="DejaVuSans-36"
                 d="M 33.015625 40.375  Q 26.375 40.375 22.484375 35.828125  Q 18.609375 31.296875 18.609375 23.390625  Q 18.609375 15.53125 22.484375 10.953125  Q 26.375 6.390625 33.015625 6.390625  Q 39.65625 6.390625 43.53125 10.953125  Q 47.40625 15.53125 47.40625 23.390625  Q 47.40625 31.296875 43.53125 35.828125  Q 39.65625 40.375 33.015625 40.375  z M 52.59375 71.296875  L 52.59375 62.3125  Q 48.875 64.0625 45.09375 64.984375  Q 41.3125 65.921875 37.59375 65.921875  Q 27.828125 65.921875 22.671875 59.328125  Q 17.53125 52.734375 16.796875 39.40625  Q 19.671875 43.65625 24.015625 45.921875  Q 28.375 48.1875 33.59375 48.1875  Q 44.578125 48.1875 50.953125 41.515625  Q 57.328125 34.859375 57.328125 23.390625  Q 57.328125 12.15625 50.6875 5.359375  Q 44.046875 -1.421875 33.015625 -1.421875  Q 20.359375 -1.421875 13.671875 8.265625  Q 6.984375 17.96875 6.984375 36.375  Q 6.984375 53.65625 15.1875 63.9375  Q 23.390625 74.21875 37.203125 74.21875  Q 40.921875 74.21875 44.703125 73.484375  Q 48.484375 72.75 52.59375 71.296875  z " />
            </defs>
            <g
               id="g1029"
               transform="translate(31.296875 141.518286)scale(0.1 -0.1)">
              <use
                 id="use1023"
                 xlink:href="#DejaVuSans-30" />
              <use
                 id="use1025"
                 xlink:href="#DejaVuSans-2e"
                 x="63.623047" />
              <use
                 id="use1027"
                 xlink:href="#DejaVuSans-36"
                 x="95.410156" />
            </g>
          </g>
        </g>
        <g
           id="ytick_5">
          <g
             id="line2d_27">
            <path
               id="path1033"
               style="fill:none;stroke:#b0b0b0;stroke-dasharray:0.8,1.32;stroke-dashoffset:0;stroke-width:0.8;"
               d="M 54.2 88.397203  L 447.48 88.397203  "
               clip-path="url(#pd6b9cab97d)" />
          </g>
          <g
             id="line2d_28">
            <g
               id="g1038">
              <use
                 id="use1036"
                 y="88.397203"
                 xlink:href="#m1297805d93"
                 x="54.2"
                 style="stroke:#000000;stroke-width:0.8;" />
            </g>
          </g>
          <g
             id="text_15">
            <!-- 0.8 -->
            <defs
               id="defs1042">
              <path
                 id="DejaVuSans-38"
                 d="M 31.78125 34.625  Q 24.75 34.625 20.71875 30.859375  Q 16.703125 27.09375 16.703125 20.515625  Q 16.703125 13.921875 20.71875 10.15625  Q 24.75 6.390625 31.78125 6.390625  Q 38.8125 6.390625 42.859375 10.171875  Q 46.921875 13.96875 46.921875 20.515625  Q 46.921875 27.09375 42.890625 30.859375  Q 38.875 34.625 31.78125 34.625  z M 21.921875 38.8125  Q 15.578125 40.375 12.03125 44.71875  Q 8.5 49.078125 8.5 55.328125  Q 8.5 64.0625 14.71875 69.140625  Q 20.953125 74.21875 31.78125 74.21875  Q 42.671875 74.21875 48.875 69.140625  Q 55.078125 64.0625 55.078125 55.328125  Q 55.078125 49.078125 51.53125 44.71875  Q 48 40.375 41.703125 38.8125  Q 48.828125 37.15625 52.796875 32.3125  Q 56.78125 27.484375 56.78125 20.515625  Q 56.78125 9.90625 50.3125 4.234375  Q 43.84375 -1.421875 31.78125 -1.421875  Q 19.734375 -1.421875 13.25 4.234375  Q 6.78125 9.90625 6.78125 20.515625  Q 6.78125 27.484375 10.78125 32.3125  Q 14.796875 37.15625 21.921875 38.8125  z M 18.3125 54.390625  Q 18.3125 48.734375 21.84375 45.5625  Q 25.390625 42.390625 31.78125 42.390625  Q 38.140625 42.390625 41.71875 45.5625  Q 45.3125 48.734375 45.3125 54.390625  Q 45.3125 60.0625 41.71875 63.234375  Q 38.140625 66.40625 31.78125 66.40625  Q 25.390625 66.40625 21.84375 63.234375  Q 18.3125 60.0625 18.3125 54.390625  z " />
            </defs>
            <g
               id="g1050"
               transform="translate(31.296875 92.196422)scale(0.1 -0.1)">
              <use
                 id="use1044"
                 xlink:href="#DejaVuSans-30" />
              <use
                 id="use1046"
                 xlink:href="#DejaVuSans-2e"
                 x="63.623047" />
              <use
                 id="use1048"
                 xlink:href="#DejaVuSans-38"
                 x="95.410156" />
            </g>
          </g>
        </g>
        <g
           id="ytick_6">
          <g
             id="line2d_29">
            <path
               id="path1054"
               style="fill:none;stroke:#b0b0b0;stroke-dasharray:0.8,1.32;stroke-dashoffset:0;stroke-width:0.8;"
               d="M 54.2 39.075338  L 447.48 39.075338  "
               clip-path="url(#pd6b9cab97d)" />
          </g>
          <g
             id="line2d_30">
            <g
               id="g1059">
              <use
                 id="use1057"
                 y="39.075338"
                 xlink:href="#m1297805d93"
                 x="54.2"
                 style="stroke:#000000;stroke-width:0.8;" />
            </g>
          </g>
          <g
             id="text_16">
            <!-- 1.0 -->
            <g
               id="g1068"
               transform="translate(31.296875 42.874557)scale(0.1 -0.1)">
              <use
                 id="use1062"
                 xlink:href="#DejaVuSans-31" />
              <use
                 id="use1064"
                 xlink:href="#DejaVuSans-2e"
                 x="63.623047" />
              <use
                 id="use1066"
                 xlink:href="#DejaVuSans-30"
                 x="95.410156" />
            </g>
          </g>
        </g>
        <g
           id="text_17">
          <!-- Expected score ($E_A$ and $E_B$) -->
          <defs
             id="defs1078">
            <path
               id="DejaVuSans-45"
               d="M 9.8125 72.90625  L 55.90625 72.90625  L 55.90625 64.59375  L 19.671875 64.59375  L 19.671875 43.015625  L 54.390625 43.015625  L 54.390625 34.71875  L 19.671875 34.71875  L 19.671875 8.296875  L 56.78125 8.296875  L 56.78125 0  L 9.8125 0  z " />
            <path
               id="DejaVuSans-78"
               d="M 54.890625 54.6875  L 35.109375 28.078125  L 55.90625 0  L 45.3125 0  L 29.390625 21.484375  L 13.484375 0  L 2.875 0  L 24.125 28.609375  L 4.6875 54.6875  L 15.28125 54.6875  L 29.78125 35.203125  L 44.28125 54.6875  z " />
            <path
               id="DejaVuSans-70"
               d="M 18.109375 8.203125  L 18.109375 -20.796875  L 9.078125 -20.796875  L 9.078125 54.6875  L 18.109375 54.6875  L 18.109375 46.390625  Q 20.953125 51.265625 25.265625 53.625  Q 29.59375 56 35.59375 56  Q 45.5625 56 51.78125 48.09375  Q 58.015625 40.1875 58.015625 27.296875  Q 58.015625 14.40625 51.78125 6.484375  Q 45.5625 -1.421875 35.59375 -1.421875  Q 29.59375 -1.421875 25.265625 0.953125  Q 20.953125 3.328125 18.109375 8.203125  z M 48.6875 27.296875  Q 48.6875 37.203125 44.609375 42.84375  Q 40.53125 48.484375 33.40625 48.484375  Q 26.265625 48.484375 22.1875 42.84375  Q 18.109375 37.203125 18.109375 27.296875  Q 18.109375 17.390625 22.1875 11.75  Q 26.265625 6.109375 33.40625 6.109375  Q 40.53125 6.109375 44.609375 11.75  Q 48.6875 17.390625 48.6875 27.296875  z " />
            <path
               id="DejaVuSans-73"
               d="M 44.28125 53.078125  L 44.28125 44.578125  Q 40.484375 46.53125 36.375 47.5  Q 32.28125 48.484375 27.875 48.484375  Q 21.1875 48.484375 17.84375 46.4375  Q 14.5 44.390625 14.5 40.28125  Q 14.5 37.15625 16.890625 35.375  Q 19.28125 33.59375 26.515625 31.984375  L 29.59375 31.296875  Q 39.15625 29.25 43.1875 25.515625  Q 47.21875 21.78125 47.21875 15.09375  Q 47.21875 7.46875 41.1875 3.015625  Q 35.15625 -1.421875 24.609375 -1.421875  Q 20.21875 -1.421875 15.453125 -0.5625  Q 10.6875 0.296875 5.421875 2  L 5.421875 11.28125  Q 10.40625 8.6875 15.234375 7.390625  Q 20.0625 6.109375 24.8125 6.109375  Q 31.15625 6.109375 34.5625 8.28125  Q 37.984375 10.453125 37.984375 14.40625  Q 37.984375 18.0625 35.515625 20.015625  Q 33.0625 21.96875 24.703125 23.78125  L 21.578125 24.515625  Q 13.234375 26.265625 9.515625 29.90625  Q 5.8125 33.546875 5.8125 39.890625  Q 5.8125 47.609375 11.28125 51.796875  Q 16.75 56 26.8125 56  Q 31.78125 56 36.171875 55.265625  Q 40.578125 54.546875 44.28125 53.078125  z " />
            <path
               id="DejaVuSans-6f"
               d="M 30.609375 48.390625  Q 23.390625 48.390625 19.1875 42.75  Q 14.984375 37.109375 14.984375 27.296875  Q 14.984375 17.484375 19.15625 11.84375  Q 23.34375 6.203125 30.609375 6.203125  Q 37.796875 6.203125 41.984375 11.859375  Q 46.1875 17.53125 46.1875 27.296875  Q 46.1875 37.015625 41.984375 42.703125  Q 37.796875 48.390625 30.609375 48.390625  z M 30.609375 56  Q 42.328125 56 49.015625 48.375  Q 55.71875 40.765625 55.71875 27.296875  Q 55.71875 13.875 49.015625 6.21875  Q 42.328125 -1.421875 30.609375 -1.421875  Q 18.84375 -1.421875 12.171875 6.21875  Q 5.515625 13.875 5.515625 27.296875  Q 5.515625 40.765625 12.171875 48.375  Q 18.84375 56 30.609375 56  z " />
            <path
               id="DejaVuSans-Oblique-45"
               d="M 16.890625 72.90625  L 62.984375 72.90625  L 61.375 64.59375  L 25.09375 64.59375  L 20.90625 43.015625  L 55.71875 43.015625  L 54.109375 34.71875  L 19.28125 34.71875  L 14.203125 8.296875  L 51.3125 8.296875  L 49.703125 0  L 2.6875 0  z " />
          </defs>
          <g
             id="g1132"
             transform="translate(24.272875 260.228)rotate(-90)scale(0.144 -0.144)">
            <use
               id="use1080"
               xlink:href="#DejaVuSans-45"
               transform="translate(0 0.015625)" />
            <use
               id="use1082"
               xlink:href="#DejaVuSans-78"
               transform="translate(63.183594 0.015625)" />
            <use
               id="use1084"
               xlink:href="#DejaVuSans-70"
               transform="translate(122.363281 0.015625)" />
            <use
               id="use1086"
               xlink:href="#DejaVuSans-65"
               transform="translate(185.839844 0.015625)" />
            <use
               id="use1088"
               xlink:href="#DejaVuSans-63"
               transform="translate(247.363281 0.015625)" />
            <use
               id="use1090"
               xlink:href="#DejaVuSans-74"
               transform="translate(302.34375 0.015625)" />
            <use
               id="use1092"
               xlink:href="#DejaVuSans-65"
               transform="translate(341.552734 0.015625)" />
            <use
               id="use1094"
               xlink:href="#DejaVuSans-64"
               transform="translate(403.076172 0.015625)" />
            <use
               id="use1096"
               xlink:href="#DejaVuSans-20"
               transform="translate(466.552734 0.015625)" />
            <use
               id="use1098"
               xlink:href="#DejaVuSans-73"
               transform="translate(498.339844 0.015625)" />
            <use
               id="use1100"
               xlink:href="#DejaVuSans-63"
               transform="translate(550.439453 0.015625)" />
            <use
               id="use1102"
               xlink:href="#DejaVuSans-6f"
               transform="translate(605.419922 0.015625)" />
            <use
               id="use1104"
               xlink:href="#DejaVuSans-72"
               transform="translate(666.601562 0.015625)" />
            <use
               id="use1106"
               xlink:href="#DejaVuSans-65"
               transform="translate(707.714844 0.015625)" />
            <use
               id="use1108"
               xlink:href="#DejaVuSans-20"
               transform="translate(769.238281 0.015625)" />
            <use
               id="use1110"
               xlink:href="#DejaVuSans-28"
               transform="translate(801.025391 0.015625)" />
            <use
               id="use1112"
               xlink:href="#DejaVuSans-Oblique-45"
               transform="translate(840.039062 0.015625)" />
            <use
               id="use1114"
               xlink:href="#DejaVuSans-Oblique-41"
               transform="translate(903.222656 -16.390625)scale(0.7)" />
            <use
               id="use1116"
               xlink:href="#DejaVuSans-20"
               transform="translate(953.842773 0.015625)" />
            <use
               id="use1118"
               xlink:href="#DejaVuSans-61"
               transform="translate(985.629883 0.015625)" />
            <use
               id="use1120"
               xlink:href="#DejaVuSans-6e"
               transform="translate(1046.90918 0.015625)" />
            <use
               id="use1122"
               xlink:href="#DejaVuSans-64"
               transform="translate(1110.288086 0.015625)" />
            <use
               id="use1124"
               xlink:href="#DejaVuSans-20"
               transform="translate(1173.764648 0.015625)" />
            <use
               id="use1126"
               xlink:href="#DejaVuSans-Oblique-45"
               transform="translate(1205.551758 0.015625)" />
            <use
               id="use1128"
               xlink:href="#DejaVuSans-Oblique-42"
               transform="translate(1268.735352 -16.390625)scale(0.7)" />
            <use
               id="use1130"
               xlink:href="#DejaVuSans-29"
               transform="translate(1319.492188 0.015625)" />
          </g>
        </g>
      </g>
      <g
         id="line2d_31">
        <path
           id="path1136"
           style="fill:none;stroke:#1f77b4;stroke-linecap:square;stroke-width:1.5;"
           d="M 72.076364 39.852727  L 79.372839 40.057802  L 86.669314 40.316703  L 93.965788 40.643395  L 101.262263 41.055368  L 108.558738 41.574475  L 115.855213 42.227923  L 123.151688 43.049445  L 130.448163 44.080645  L 137.744638 45.372475  L 145.041113 46.986799  L 152.337588 48.997881  L 159.634063 51.493581  L 166.930538 54.575886  L 174.227013 58.360244  L 181.523488 62.97299  L 188.819963 68.54602  L 196.116438 75.207849  L 203.412913 83.070465  L 210.709388 92.212082  L 218.005863 102.657129  L 225.302338 114.35645  L 232.598813 127.172322  L 239.895288 140.873621  L 247.191763 155.145475  L 254.488237 169.614525  L 261.784712 183.886379  L 269.081187 197.587678  L 276.377662 210.40355  L 283.674137 222.102871  L 290.970612 232.547918  L 298.267087 241.689535  L 305.563562 249.552151  L 312.860037 256.21398  L 320.156512 261.78701  L 327.452987 266.399756  L 334.749462 270.184114  L 342.045937 273.266419  L 349.342412 275.762119  L 356.638887 277.773201  L 363.935362 279.387525  L 371.231837 280.679355  L 378.528312 281.710555  L 385.824787 282.532077  L 393.121262 283.185525  L 400.417737 283.704632  L 407.714212 284.116605  L 415.010686 284.443297  L 422.307161 284.702198  L 429.603636 284.907273  "
           clip-path="url(#pd6b9cab97d)" />
      </g>
      <g
         id="line2d_32">
        <path
           id="path1139"
           style="fill:none;stroke:#ff7f0e;stroke-linecap:square;stroke-width:1.5;"
           d="M 72.076364 284.907273  L 79.372839 284.702198  L 86.669314 284.443297  L 93.965788 284.116605  L 101.262263 283.704632  L 108.558738 283.185525  L 115.855213 282.532077  L 123.151688 281.710555  L 130.448163 280.679355  L 137.744638 279.387525  L 145.041113 277.773201  L 152.337588 275.762119  L 159.634063 273.266419  L 166.930538 270.184114  L 174.227013 266.399756  L 181.523488 261.78701  L 188.819963 256.21398  L 196.116438 249.552151  L 203.412913 241.689535  L 210.709388 232.547918  L 218.005863 222.102871  L 225.302338 210.40355  L 232.598813 197.587678  L 239.895288 183.886379  L 247.191763 169.614525  L 254.488237 155.145475  L 261.784712 140.873621  L 269.081187 127.172322  L 276.377662 114.35645  L 283.674137 102.657129  L 290.970612 92.212082  L 298.267087 83.070465  L 305.563562 75.207849  L 312.860037 68.54602  L 320.156512 62.97299  L 327.452987 58.360244  L 334.749462 54.575886  L 342.045937 51.493581  L 349.342412 48.997881  L 356.638887 46.986799  L 363.935362 45.372475  L 371.231837 44.080645  L 378.528312 43.049445  L 385.824787 42.227923  L 393.121262 41.574475  L 400.417737 41.055368  L 407.714212 40.643395  L 415.010686 40.316703  L 422.307161 40.057802  L 429.603636 39.852727  "
           clip-path="url(#pd6b9cab97d)" />
      </g>
      <g
         id="patch_3">
        <path
           id="path1142"
           style="fill:none;stroke:#000000;stroke-linecap:square;stroke-linejoin:miter;stroke-width:0.8;"
           d="M 54.2 297.16  L 54.2 27.6  " />
      </g>
      <g
         id="patch_4">
        <path
           id="path1145"
           style="fill:none;stroke:#000000;stroke-linecap:square;stroke-linejoin:miter;stroke-width:0.8;"
           d="M 447.48 297.16  L 447.48 27.6  " />
      </g>
      <g
         id="patch_5">
        <path
           id="path1148"
           style="fill:none;stroke:#000000;stroke-linecap:square;stroke-linejoin:miter;stroke-width:0.8;"
           d="M 54.2 297.16  L 447.48 297.16  " />
      </g>
      <g
         id="patch_6">
        <path
           id="path1151"
           style="fill:none;stroke:#000000;stroke-linecap:square;stroke-linejoin:miter;stroke-width:0.8;"
           d="M 54.2 27.6  L 447.48 27.6  " />
      </g>
      <g
         id="text_18">
        <!-- Expected score for players with different ratings -->
        <defs
           id="defs1158">
          <path
             id="DejaVuSans-6c"
             d="M 9.421875 75.984375  L 18.40625 75.984375  L 18.40625 0  L 9.421875 0  z " />
          <path
             id="DejaVuSans-79"
             d="M 32.171875 -5.078125  Q 28.375 -14.84375 24.75 -17.8125  Q 21.140625 -20.796875 15.09375 -20.796875  L 7.90625 -20.796875  L 7.90625 -13.28125  L 13.1875 -13.28125  Q 16.890625 -13.28125 18.9375 -11.515625  Q 21 -9.765625 23.484375 -3.21875  L 25.09375 0.875  L 2.984375 54.6875  L 12.5 54.6875  L 29.59375 11.921875  L 46.6875 54.6875  L 56.203125 54.6875  z " />
          <path
             id="DejaVuSans-77"
             d="M 4.203125 54.6875  L 13.1875 54.6875  L 24.421875 12.015625  L 35.59375 54.6875  L 46.1875 54.6875  L 57.421875 12.015625  L 68.609375 54.6875  L 77.59375 54.6875  L 63.28125 0  L 52.6875 0  L 40.921875 44.828125  L 29.109375 0  L 18.5 0  z " />
          <path
             id="DejaVuSans-68"
             d="M 54.890625 33.015625  L 54.890625 0  L 45.90625 0  L 45.90625 32.71875  Q 45.90625 40.484375 42.875 44.328125  Q 39.84375 48.1875 33.796875 48.1875  Q 26.515625 48.1875 22.3125 43.546875  Q 18.109375 38.921875 18.109375 30.90625  L 18.109375 0  L 9.078125 0  L 9.078125 75.984375  L 18.109375 75.984375  L 18.109375 46.1875  Q 21.34375 51.125 25.703125 53.5625  Q 30.078125 56 35.796875 56  Q 45.21875 56 50.046875 50.171875  Q 54.890625 44.34375 54.890625 33.015625  z " />
        </defs>
        <g
           id="g1258"
           transform="translate(76.529125 21.6)scale(0.144 -0.144)">
          <use
             id="use1160"
             xlink:href="#DejaVuSans-45" />
          <use
             id="use1162"
             xlink:href="#DejaVuSans-78"
             x="63.183594" />
          <use
             id="use1164"
             xlink:href="#DejaVuSans-70"
             x="122.363281" />
          <use
             id="use1166"
             xlink:href="#DejaVuSans-65"
             x="185.839844" />
          <use
             id="use1168"
             xlink:href="#DejaVuSans-63"
             x="247.363281" />
          <use
             id="use1170"
             xlink:href="#DejaVuSans-74"
             x="302.34375" />
          <use
             id="use1172"
             xlink:href="#DejaVuSans-65"
             x="341.552734" />
          <use
             id="use1174"
             xlink:href="#DejaVuSans-64"
             x="403.076172" />
          <use
             id="use1176"
             xlink:href="#DejaVuSans-20"
             x="466.552734" />
          <use
             id="use1178"
             xlink:href="#DejaVuSans-73"
             x="498.339844" />
          <use
             id="use1180"
             xlink:href="#DejaVuSans-63"
             x="550.439453" />
          <use
             id="use1182"
             xlink:href="#DejaVuSans-6f"
             x="605.419922" />
          <use
             id="use1184"
             xlink:href="#DejaVuSans-72"
             x="666.601562" />
          <use
             id="use1186"
             xlink:href="#DejaVuSans-65"
             x="707.683594" />
          <use
             id="use1188"
             xlink:href="#DejaVuSans-20"
             x="769.207031" />
          <use
             id="use1190"
             xlink:href="#DejaVuSans-66"
             x="800.994141" />
          <use
             id="use1192"
             xlink:href="#DejaVuSans-6f"
             x="836.199219" />
          <use
             id="use1194"
             xlink:href="#DejaVuSans-72"
             x="897.380859" />
          <use
             id="use1196"
             xlink:href="#DejaVuSans-20"
             x="938.494141" />
          <use
             id="use1198"
             xlink:href="#DejaVuSans-70"
             x="970.28125" />
          <use
             id="use1200"
             xlink:href="#DejaVuSans-6c"
             x="1033.757812" />
          <use
             id="use1202"
             xlink:href="#DejaVuSans-61"
             x="1061.541016" />
          <use
             id="use1204"
             xlink:href="#DejaVuSans-79"
             x="1122.820312" />
          <use
             id="use1206"
             xlink:href="#DejaVuSans-65"
             x="1182" />
          <use
             id="use1208"
             xlink:href="#DejaVuSans-72"
             x="1243.523438" />
          <use
             id="use1210"
             xlink:href="#DejaVuSans-73"
             x="1284.636719" />
          <use
             id="use1212"
             xlink:href="#DejaVuSans-20"
             x="1336.736328" />
          <use
             id="use1214"
             xlink:href="#DejaVuSans-77"
             x="1368.523438" />
          <use
             id="use1216"
             xlink:href="#DejaVuSans-69"
             x="1450.310547" />
          <use
             id="use1218"
             xlink:href="#DejaVuSans-74"
             x="1478.09375" />
          <use
             id="use1220"
             xlink:href="#DejaVuSans-68"
             x="1517.302734" />
          <use
             id="use1222"
             xlink:href="#DejaVuSans-20"
             x="1580.681641" />
          <use
             id="use1224"
             xlink:href="#DejaVuSans-64"
             x="1612.46875" />
          <use
             id="use1226"
             xlink:href="#DejaVuSans-69"
             x="1675.945312" />
          <use
             id="use1228"
             xlink:href="#DejaVuSans-66"
             x="1703.728516" />
          <use
             id="use1230"
             xlink:href="#DejaVuSans-66"
             x="1738.933594" />
          <use
             id="use1232"
             xlink:href="#DejaVuSans-65"
             x="1774.138672" />
          <use
             id="use1234"
             xlink:href="#DejaVuSans-72"
             x="1835.662109" />
          <use
             id="use1236"
             xlink:href="#DejaVuSans-65"
             x="1876.744141" />
          <use
             id="use1238"
             xlink:href="#DejaVuSans-6e"
             x="1938.267578" />
          <use
             id="use1240"
             xlink:href="#DejaVuSans-74"
             x="2001.646484" />
          <use
             id="use1242"
             xlink:href="#DejaVuSans-20"
             x="2040.855469" />
          <use
             id="use1244"
             xlink:href="#DejaVuSans-72"
             x="2072.642578" />
          <use
             id="use1246"
             xlink:href="#DejaVuSans-61"
             x="2113.755859" />
          <use
             id="use1248"
             xlink:href="#DejaVuSans-74"
             x="2175.035156" />
          <use
             id="use1250"
             xlink:href="#DejaVuSans-69"
             x="2214.244141" />
          <use
             id="use1252"
             xlink:href="#DejaVuSans-6e"
             x="2242.027344" />
          <use
             id="use1254"
             xlink:href="#DejaVuSans-67"
             x="2305.40625" />
          <use
             id="use1256"
             xlink:href="#DejaVuSans-73"
             x="2368.882812" />
        </g>
      </g>
      <g
         id="legend_1">
        <g
           id="patch_7">
          <path
             id="path1261"
             style="fill:#eeeeee;opacity:0.8;stroke:#cccccc;stroke-linejoin:miter;"
             d="M 373.896 185.6765  L 437.4 185.6765  Q 440.28 185.6765 440.28 182.7965  L 440.28 141.9635  Q 440.28 139.0835 437.4 139.0835  L 373.896 139.0835  Q 371.016 139.0835 371.016 141.9635  L 371.016 182.7965  Q 371.016 185.6765 373.896 185.6765  z " />
        </g>
        <g
           id="line2d_33">
          <path
             id="path1264"
             style="fill:none;stroke:#1f77b4;stroke-linecap:square;stroke-width:1.5;"
             d="M 376.776 150.74525  L 405.576 150.74525  " />
        </g>
        <g
           id="line2d_34" />
        <g
           id="text_19">
          <!-- $R_A$ -->
          <g
             id="g1272"
             transform="translate(417.096 155.78525)scale(0.144 -0.144)">
            <use
               id="use1270"
               xlink:href="#DejaVuSans-Oblique-41"
               transform="translate(69.482422 -16.3125)scale(0.7)" />
          </g>
        </g>
        <g
           id="line2d_35">
          <path
             id="path1275"
             style="fill:none;stroke:#ff7f0e;stroke-linecap:square;stroke-width:1.5;"
             d="M 376.776 171.88175  L 405.576 171.88175  " />
        </g>
        <g
           id="line2d_36" />
        <g
           id="text_20">
          <!-- $R_B$ -->
          <g
             id="g1283"
             transform="translate(417.096 176.92175)scale(0.144 -0.144)">
            <use
               id="use1281"
               xlink:href="#DejaVuSans-Oblique-42"
               transform="translate(69.482422 -16.3125)scale(0.7)" />
            <use
               height="100%"
               width="100%"
               y="0"
               x="0"
               style="stroke-linecap:butt;stroke-linejoin:round"
               transform="translate(7.9668752,-0.17062423)"
               xlink:href="#DejaVuSans-Oblique-45"
               id="use1112-7" />
          </g>
        </g>
      </g>
      <use
         height="100%"
         width="100%"
         y="0"
         x="0"
         style="stroke-linecap:butt;stroke-linejoin:round"
         transform="matrix(0.144,0,0,-0.144,418.24323,155.94632)"
         xlink:href="#DejaVuSans-Oblique-45"
         id="use1112-6" />
    </g>
  </g>
  <defs
     id="defs1292">
    <clipPath
       id="pd6b9cab97d">
      <rect
         id="rect1289"
         y="27.6"
         x="54.2"
         width="393.28"
         height="269.56" />
    </clipPath>
  </defs>
</svg>
